<?xml version="1.0" encoding="UTF-8"?>
<svg id="Capa_1" data-name="Capa 1" xmlns="http://www.w3.org/2000/svg" version="1.1" viewBox="0 0 1684.4 120.4">
  <defs>
    <style>
      .cls-1 {
        fill: #ff5f00;
      }

      .cls-1, .cls-2, .cls-3, .cls-4, .cls-5, .cls-6, .cls-7, .cls-8, .cls-9, .cls-10, .cls-11, .cls-12, .cls-13, .cls-14, .cls-15, .cls-16, .cls-17, .cls-18, .cls-19 {
        stroke-width: 0px;
      }

      .cls-2 {
        fill: #d2eb5a;
      }

      .cls-3 {
        fill: none;
      }

      .cls-4 {
        fill: #252c36;
      }

      .cls-5 {
        fill: #eb001b;
      }

      .cls-6 {
        fill: #00aae8;
      }

      .cls-6, .cls-12, .cls-14, .cls-15, .cls-17 {
        fill-rule: evenodd;
      }

      .cls-7 {
        fill: #b4d241;
      }

      .cls-8 {
        fill: #0a0080;
      }

      .cls-9 {
        fill: #000;
      }

      .cls-10 {
        fill: #f79e1b;
      }

      .cls-11 {
        fill: #00bcff;
      }

      .cls-12 {
        fill: #0072a2;
      }

      .cls-13 {
        fill: #1a1f71;
      }

      .cls-20 {
        opacity: .5;
      }

      .cls-14 {
        fill: #1b4388;
      }

      .cls-15 {
        fill: #183274;
      }

      .cls-16 {
        fill: #dce6eb;
      }

      .cls-17, .cls-18 {
        fill: #fff;
      }

      .cls-19 {
        fill: #231f20;
      }
    </style>
  </defs>
  <g id="Layer_2" data-name="Layer 2">
    <g id="Layer_1-2" data-name="Layer 1-2">
      <rect class="cls-3" x="-11" width="146.8" height="120.4"/>
      <path class="cls-19" d="M25.3,105.3v-6c.1-2-1.3-3.7-3.3-3.8h-.5c-1.3,0-2.6.6-3.4,1.7-.7-1.1-1.9-1.8-3.2-1.7-1.1,0-2.2.5-2.8,1.4v-1.2h-2.1v9.6h2.1v-5.3c-.2-1.2.7-2.4,1.9-2.5h.4c1.4,0,2.1.9,2.1,2.5v5.3h2.1v-5.3c-.2-1.2.7-2.4,1.9-2.5h.4c1.4,0,2.1.9,2.1,2.5v5.3h2.3ZM56.4,95.7h-3.4v-2.9h-2.1v2.9h-1.9v1.9h1.9v4.4c0,2.2.9,3.5,3.3,3.5s1.8-.2,2.6-.7l-.6-1.8c-.6.3-1.2.5-1.8.5-1,0-1.4-.6-1.4-1.6v-4.4h3.4v-1.8ZM74.2,95.5c-1,0-2,.5-2.5,1.4v-1.2h-2.1v9.6h2.1v-5.4c0-1.6.7-2.5,2-2.5s.9,0,1.3.2l.6-2c-.5,0-1-.2-1.4,0h0ZM47.3,96.5c-1.2-.7-2.5-1.1-3.9-1-2.4,0-4,1.2-4,3.1s1.2,2.5,3.3,2.8h1c1.1.3,1.7.6,1.7,1.1s-.8,1.2-2.2,1.2-2.3-.3-3.2-1l-1,1.6c1.2.8,2.7,1.3,4.1,1.2,2.8,0,4.4-1.3,4.4-3.1s-1.3-2.6-3.3-2.9h-1c-.9-.2-1.6-.4-1.6-1s.7-1.1,1.8-1.1,2.1.3,3,.8l.9-1.7ZM103.1,95.5c-1,0-2,.5-2.5,1.4v-1.2h-2.1v9.6h2.1v-5.4c0-1.6.7-2.5,2-2.5s.9,0,1.3.2l.6-2c-.5,0-1-.2-1.4,0h0ZM76.2,100.5c0,2.7,2,4.9,4.7,5h.4c1.2,0,2.5-.3,3.4-1.1l-1-1.7c-.7.6-1.6.8-2.5.9-1.7,0-2.9-1.6-2.8-3.3,0-1.5,1.3-2.7,2.8-2.8.9,0,1.8.3,2.5.9l1-1.7c-1-.8-2.2-1.2-3.4-1.1-2.7-.2-4.9,1.9-5.1,4.6,0-.1,0,0,0,.3h0ZM95.7,100.5v-4.8h-2.1v1.2c-.7-.9-1.8-1.4-3-1.4-2.8,0-5,2.2-5,5s2.2,5,5,5,2.3-.5,3-1.4v1.2h2.1v-4.8ZM88,100.5c0-1.6,1.5-2.8,3.1-2.7s2.8,1.5,2.7,3.1c0,1.5-1.3,2.7-2.9,2.7s-2.9-1.2-2.9-2.8c0-.2,0-.3,0-.3ZM62.9,95.5c-2.8,0-5,2.3-4.9,5.1s2.3,5,5.1,4.9h0c1.4,0,2.8-.4,4-1.3l-1-1.5c-.8.6-1.8,1-2.8,1-1.4,0-2.7-.9-2.9-2.3h7.1v-.8c0-3.1-1.9-5.1-4.6-5.1h0ZM62.9,97.3c1.3,0,2.4,1,2.4,2.3h-5c0-1.3,1.2-2.3,2.6-2.3h0ZM115,100.5v-8.6h-2v5c-.7-.9-1.8-1.4-3-1.4-2.8,0-5,2.2-5,5s2.2,5,5,5,2.3-.5,3-1.4v1.2h2v-4.8ZM118.5,103.9c0,0,.3,0,.4,0s.2,0,.3.2.2.2.2.3c0,.2,0,.5,0,.7,0,0,0,.2-.2.3,0,0-.2.2-.3.2,0,0-.2,0-.4,0-.4,0-.7-.2-.9-.6,0-.2,0-.5,0-.7,0,0,0-.2.2-.3,0,0,.2-.2.3-.2,0,0,.3,0,.4,0h0ZM118.5,105.6c0,0,.2,0,.3,0s.2,0,.2-.2c.3-.3.3-.7,0-1l-.2-.2c0,0-.2,0-.3,0s-.2,0-.3,0-.2,0-.2.2c-.3.3-.3.7,0,1l.2.2c.1,0,.2,0,.3,0h0ZM118.5,104.4c0,0,.2,0,.3,0q0,0,0,.2t0,.2-.2,0l.3.3h-.2l-.3-.3h0v.3h-.2v-.9h.4ZM118.3,104.5v.2h.3v-.2h-.3ZM107.3,100.5c0-1.6,1.5-2.8,3.1-2.7,1.6,0,2.8,1.5,2.7,3.1,0,1.5-1.4,2.7-2.9,2.7s-2.9-1.2-2.9-2.8q0-.2,0-.3ZM37.1,100.5v-4.8h-2.1v1.2c-.7-.9-1.8-1.4-3-1.4-2.8,0-5,2.2-5,5s2.2,5,5,5,2.3-.5,3-1.4v1.2h2.1v-4.8ZM29.3,100.5c.1-1.6,1.5-2.8,3.1-2.7s2.8,1.5,2.7,3.1c0,1.5-1.3,2.7-2.9,2.7s-2.9-1.2-2.9-2.8c0,0,0-.2,0-.3h0Z"/>
      <g id="_Group_" data-name=" Group ">
        <rect class="cls-1" x="46.7" y="22.9" width="31.5" height="56.6"/>
        <path id="_Path_" data-name=" Path " class="cls-5" d="M48.7,51.2c0-11,5.1-21.5,13.8-28.3-15.6-12.3-38.3-9.6-50.5,6.1C-.2,44.7,2.4,67.3,18.1,79.5c13.1,10.3,31.4,10.3,44.5,0-8.9-6.9-14-17.3-13.9-28.3Z"/>
        <path class="cls-10" d="M120.6,51.2c0,19.9-16.1,36-36,36s-15.9-2.7-22.2-7.7c15.6-12.3,18.3-35,6.1-50.6-1.8-2.2-3.8-4.3-6.1-6.1,15.6-12.3,38.3-9.6,50.6,6.1,4.9,6.3,7.6,14.2,7.6,22.3h0Z"/>
        <path class="cls-10" d="M117.2,73.5v-1.2h.5v-.2h-1.2v.2h.5v1.2h.2ZM119.5,73.5v-1.4h-.4l-.4,1-.4-1h-.3v1.4h.3v-1.1l.4.9h.3l.4-.9v1.1h0Z"/>
      </g>
    </g>
  </g>
  <g>
    <path class="cls-13" d="M230.2,31.8l-23.3,55.6h-15.2l-11.5-44.4c-.7-2.7-1.3-3.7-3.4-4.9-3.5-1.9-9.2-3.6-14.2-4.7l.3-1.6h24.5c3.1,0,5.9,2.1,6.6,5.7l6.1,32.2,15-37.8h15.1Z"/>
    <polygon class="cls-13" points="250.7 31.8 238.8 87.4 224.4 87.4 236.3 31.8 250.7 31.8"/>
    <path class="cls-13" d="M289.8,69.2c.1-14.7-20.3-15.5-20.2-22,0-2,2-4.1,6.1-4.7,2.1-.3,7.8-.5,14.2,2.5l2.5-11.8c-3.5-1.2-7.9-2.5-13.5-2.5-14.2,0-24.2,7.5-24.3,18.4-.1,8,7.1,12.5,12.6,15.1,5.6,2.7,7.5,4.5,7.5,6.9,0,3.7-4.5,5.4-8.6,5.4-7.2,0-11.4-2-14.8-3.5l-2.6,12.2c3.4,1.5,9.6,2.9,16,2.9,15.1,0,25-7.3,25.1-18.9h0Z"/>
    <path class="cls-13" d="M327.3,87.4h13.3l-11.6-55.6h-12.3c-2.8,0-5.1,1.6-6.1,4.1l-21.6,51.5h15.1l3-8.3h18.5l1.7,8.3Z"/>
    <polygon class="cls-18" points="311.3 67.7 318.8 46.8 323.2 67.7 311.3 67.7"/>
  </g>
  <g>
    <polygon class="cls-17" points="387.4 7.6 489.4 7.6 489.4 109.6 387.4 109.6 387.4 7.6"/>
    <path class="cls-12" d="M391.9,101.6h-.3c0-.2-.1-.4-.1-.4,0,0,0-.2-.2-.2h-.4v.7h-.2v-1.5h.7c.3,0,.5,0,.5.4s-.1.3-.1.4c.1,0,.1.2.1.3v.3q0,0,.1,0h0c0,0-.1,0-.1,0ZM391.6,100.5c0-.2-.1-.2-.2-.2h-.5v.4h.4c.2,0,.3-.1.3-.2h0ZM392.9,100.8c0-.9-.7-1.6-1.7-1.6s-1.6.7-1.6,1.6.7,1.7,1.6,1.7,1.7-.8,1.7-1.7h0ZM392.6,100.8c0,.8-.7,1.4-1.5,1.4s-1.4-.6-1.4-1.4.6-1.4,1.4-1.4,1.5.7,1.5,1.4h0Z"/>
    <path class="cls-12" d="M482.5,71.3c0,2.2-1.4,3.2-3.9,3.2h-4.7v-2.2h4.7c.4,0,.8,0,1-.2.1-.2.3-.4.3-.7s-.1-.6-.3-.7c-.1-.2-.4-.2-.9-.2-2.3,0-5.1,0-5.1-3.1s1-3.1,3.5-3.1h4.9v2.2h-4.5c-.4,0-.7,0-1,.2-.2.2-.4.4-.4.8s.2.6.5.7.6.2,1,.2h1.3c1.4,0,2.3.3,2.9.8.5.4.7,1.1.7,2.1h0ZM472.3,69.1c-.6-.5-1.5-.8-2.9-.8h-1.3c-.4,0-.7,0-1-.2-.3-.2-.5-.4-.5-.7s.1-.6.4-.8c.2-.2.5-.2,1-.2h4.5v-2.2h-4.9c-2.6,0-3.5,1.6-3.5,3.1,0,3.2,2.9,3.1,5.1,3.1s.7,0,.9.2.3.4.3.7-.1.5-.3.7c-.2.2-.5.2-1,.2h-4.7v2.2h4.7c2.5,0,3.9-1,3.9-3.2s-.3-1.6-.7-2.1h0ZM462.9,72.4h-5.8v-2h5.6v-2h-5.6v-1.9h5.8v-2.1h-8.2v10.2h8.2v-2.2h0ZM452.1,64.8c-.8-.4-1.8-.5-3-.5h-5.6v10.2h2.5v-3.7h2.6c.9,0,1.4,0,1.8.4.4.5.4,1.4.4,2v1.2h2.4v-2c0-.9-.1-1.4-.4-1.9-.2-.3-.7-.7-1.2-.9.7-.2,1.8-1.1,1.8-2.7,0-1-.5-1.7-1.3-2.1h0ZM438.3,64.3h-7.8l-3.1,3.4-3-3.4h-9.9v10.2h9.7l3.1-3.4,3,3.4h4.7v-3.4h3.1c2.1,0,4.2-.6,4.2-3.4,0-2.8-2.2-3.4-4-3.4h0ZM450.1,68.5c-.4.2-.7.2-1.2.2h-3c0,0,0-2.2,0-2.2h3c.4,0,.9,0,1.2.2.3.2.5.4.5.9s-.2.7-.5.9h0ZM438.3,69h-3.2v-2.6h3.2c.9,0,1.5.4,1.5,1.2s-.7,1.4-1.5,1.4h0ZM428.8,69.4l3.8-4v8.2l-3.8-4.2h0ZM422.9,72.4h-6.1v-2h5.4v-2h-5.4v-1.9h6.1l2.7,3-2.7,2.9h0ZM475.8,56.9h-3.5l-4.6-7.7v7.7h-5l-1-2.3h-5.1l-1,2.3h-2.9c-1.2,0-2.7-.3-3.6-1.2-.8-.9-1.2-2-1.2-3.9s.2-2.9,1.3-4c.7-.8,2-1.2,3.7-1.2h2.3v2.2h-2.3c-.9,0-1.4.2-1.9.6-.4.4-.7,1.2-.7,2.3s.2,1.9.7,2.4c.4.4,1,.5,1.7.5h1.1l3.5-8h3.6l4.1,9.6v-9.6h3.8l4.3,7.1v-7.1h2.5l.2,10.3h0ZM446.8,46.7h-2.5v10.2h2.5v-10.2h0ZM441.6,47.2c-.8-.4-1.7-.4-2.9-.4h-5.6v10.2h2.4v-3.7h2.6c.9,0,1.5,0,1.8.4.4.5.4,1.4.4,2v1.3h2.5v-2c0-.9-.1-1.3-.4-1.8-.2-.3-.7-.7-1.2-.9.7-.3,1.8-1.1,1.8-2.7,0-1.3-.6-1.9-1.4-2.4h0ZM431.3,54.8h-5.7v-2h5.6v-2.1h-5.6v-1.8h5.7v-2.1h-8.2v10.2h8.2v-2.2h0ZM421.3,46.7h-4l-3,6.9-3.2-6.9h-3.9v9.6l-4.2-9.6h-3.6l-4.4,10.2h2.6l1-2.3h5.1l1,2.3h5v-8l3.6,8h2.1l3.6-8v8h2.5l-.2-10.2h0ZM460.9,52.5l-1.7-4-1.7,4h3.4ZM439.7,50.9c-.4.2-.7.2-1.2.2h-3v-2.3h3c.4,0,1,0,1.2.2.3.2.4.5.4,1s-.1.7-.4.9h0ZM399.4,52.5l1.7-4,1.7,4h-3.4ZM482,14.7h-87.1v36.8l3-6.8h6.4l.9,1.7v-1.7h7.4l1.7,3.7,1.6-3.7h23.7c1.1,0,2,.2,2.8.8v-.8h6.5v.8c1.1-.6,2.5-.8,4.1-.8h9.4l.9,1.7v-1.7h6.9l1,1.7v-1.7h6.8v14.3h-6.9l-1.3-2.2v2.2h-8.5l-1-2.3h-2.1l-1,2.3h-4.5c-1.8,0-3.1-.4-3.9-.9v.9h-10.6v-3.3c0-.4-.1-.5-.4-.5h-.3v3.8h-20.4v-1.8l-.7,1.8h-4.3l-.7-1.8v1.8h-8.2l-.9-2.3h-2.1l-1,2.3h-4.2v43.1h87.1v-26.2c-1,.4-2.3.7-3.6.7h-6.4v-.9c-.7.6-2,.9-3.3.9h-20v-3.3c0-.4-.1-.4-.4-.4h-.4v3.7h-6.6v-3.9c-1.1.5-2.3.5-3.4.5h-.7v3.4h-8l-1.9-2.2-2.1,2.2h-12.9v-14.3h13.1l1.9,2.2,2-2.2h8.8c1,0,2.7.2,3.4.9v-.9h7.9c.8,0,2.3.2,3.4.9v-.9h11.9v.9c.7-.6,1.9-.9,3-.9h6.6v.9c.7-.5,1.8-.9,3.1-.9h4.5V14.7h0Z"/>
  </g>
  <g>
    <g>
      <path class="cls-2" d="M1496,33.5v45.8c0,6-3.3,11.4-8.7,14.2l-21.1,12.4h0c-2.2,1.1-4.7,1.7-7.2,1.7s-5-.6-7.2-1.7h-.2c0,0-21-12.5-21-12.5-5.3-2.7-8.7-8.2-8.7-14.2v-45.7c0-2.5,1.7-4.6,4-5.3l32.2-9.4h0c.3-.1.5-.1.8-.1s.6,0,.8.1h0l32.1,9.4c2.6.7,4.2,2.9,4.2,5.3Z"/>
      <path class="cls-7" d="M1496,33.5v45.8c0,6-3.3,11.4-8.7,14.2l-21.1,12.4h0c-2.2,1.1-4.7,1.7-7.2,1.7V18.7c.3,0,.6,0,.8.1h0l32.1,9.4c2.5.7,4.1,2.9,4.1,5.3Z"/>
      <g>
        <path class="cls-18" d="M1452.2,59.5c-.4-.7-.8-1.3-1.3-1.7s-1.1-.8-1.8-1.1c-.6-.3-1.2-.6-1.8-.8-.5-.2-1-.5-1.3-.8s-.5-.6-.5-1,.2-.7.6-1c.4-.3,1-.4,1.7-.4s1.4.2,2,.4c.6.3,1,.4,1.2.4.4,0,.8-.2,1-.7.2-.4.4-.9.4-1.3s-.2-.8-.5-1.1-.8-.5-1.3-.7c-.5,0-1-.2-1.5-.3-.4,0-.9,0-1.3,0-1.6,0-3,.4-4.2,1.2s-1.7,2-1.7,3.7.2,1.9.8,2.6,1.1,1.3,1.8,1.7,1.4.8,2.2,1.1c.7.3,1.3.7,1.8,1s.8.8.8,1.3-.2.9-.7,1.1c-.4.2-1,.4-1.6.4s-.9,0-1.4-.3-.8-.4-1-.6-.5-.4-.8-.6-.5-.3-.8-.3-.8.2-1.1.7c-.3.4-.5.9-.5,1.3,0,.8.5,1.5,1.7,2.1s2.4.9,3.9.9,3.1-.4,4.2-1.3c1.1-.9,1.6-2.1,1.6-3.7-.1-.5-.2-1.4-.6-2.1Z"/>
        <path class="cls-18" d="M1464.5,59.5c-.4-.7-.8-1.3-1.3-1.7s-1.1-.8-1.8-1.1c-.6-.3-1.2-.6-1.8-.8-.2,0-.5-.2-.7-.3s-.5-.3-.7-.4c-.4-.3-.5-.6-.5-1s.2-.7.6-1c.2,0,.4-.2.6-.3.3,0,.7,0,1.1,0,.7,0,1.4.2,2,.4.6.3,1,.4,1.2.4.4,0,.8-.2,1-.7.2-.4.4-.9.4-1.3s-.2-.8-.5-1.1-.8-.5-1.3-.7c-.5,0-1-.2-1.5-.3-.4,0-.9,0-1.3,0s-.7,0-1.1,0c-1.2,0-2.2.5-3.1,1.2-1.2.8-1.7,2-1.7,3.7s.2,1.9.8,2.6,1.1,1.3,1.8,1.7,1.4.8,2.2,1.1h0c.7.3,1.3.6,1.7,1,.5.4.8.8.8,1.3s-.2.9-.7,1.1-1,.4-1.6.4h-.2c-.4,0-.8,0-1.1-.3-.4-.2-.8-.4-1-.6s-.5-.4-.8-.6-.5-.3-.8-.3-.8.2-1.1.7c-.3.4-.5.9-.5,1.3,0,.8.5,1.5,1.7,2.1,1,.6,2.2.9,3.6.9h.3c1.7,0,3.1-.4,4.2-1.3,1.1-.9,1.6-2.1,1.6-3.7-.1-.7-.2-1.6-.6-2.3Z"/>
      </g>
      <path class="cls-16" d="M1476.4,64.1c-.2-.3-.4-.5-.8-.5h-5.2v-12.6c0-.3-.2-.6-.5-.8s-.8-.3-1.3-.3-.9,0-1.3.3c-.3.2-.5.5-.5.8v14.7c0,.3.2.6.5.8s.7.3,1.1.3h7.3c.3,0,.6-.2.8-.5s.3-.7.3-1.1c0-.4-.2-.8-.4-1.1Z"/>
      <path class="cls-18" d="M1477.8,72.8c0,1.4-1.2,2.6-2.6,2.6h-32.5c-1.4,0-2.6-1.2-2.6-2.6s1.2-2.6,2.6-2.6h32.5c1.5,0,2.6,1.2,2.6,2.6Z"/>
      <g>
        <path class="cls-16" d="M1460,52.9c-.4,0-.8,0-1.1,0v-3.2c.3,0,.7,0,1.1,0s.8,0,1.3,0,.9,0,1.5.3c.5,0,1,.3,1.3.7.3.3.5.7.5,1.1s0,.8-.4,1.3-.6.7-1,.7-.6-.2-1.2-.4c-.6-.5-1.2-.6-2-.6Z"/>
        <path class="cls-16" d="M1465,62c0,1.6-.5,2.8-1.6,3.7s-2.5,1.3-4.2,1.3h-.3v-3.1h.2c.6,0,1.1,0,1.6-.4.4-.2.7-.6.7-1.1s-.2-1-.8-1.3c-.5-.4-1.1-.7-1.7-1v-4.3c.2,0,.4.2.7.3.5.2,1.1.5,1.8.8.6.3,1.2.7,1.8,1.1.5.4,1,.9,1.3,1.7.4.5.5,1.4.5,2.3Z"/>
        <path class="cls-16" d="M1477.8,72.8c0,1.4-1.2,2.6-2.6,2.6h-16.3v-5.2h16.3c1.5,0,2.6,1.2,2.6,2.6Z"/>
      </g>
    </g>
    <g>
      <path class="cls-9" d="M1525,60.7c.9,0,1.7,0,2.4-.2.7,0,1.1-.3,1.5-.7.3-.2.7-.6.8-1s.2-.8.2-1.2c0-1-.4-1.8-1.3-2.5-.9-.7-2.5-1.3-4.7-2-1-.3-1.9-.8-2.9-1.1-1-.4-1.8-1-2.6-1.7s-1.3-1.5-1.9-2.5c-.4-.9-.8-2.1-.8-3.5s.2-2.6.8-3.7c.6-1.1,1.2-2,2.1-2.8.9-.8,2-1.3,3.4-1.8,1.3-.4,2.8-.6,4.5-.6s3.7.2,5.2.7c1.5.4,2.7.9,3.6,1.5l-1.9,5.3c-.8-.4-1.7-.8-2.8-1.1-1-.3-2.2-.4-3.6-.4s-2.7.2-3.5.7-1,1.1-1,2,0,1,.3,1.3.6.7,1.1,1c.4.3,1,.6,1.7.8.6.2,1.3.4,2,.8,1.6.6,2.9,1.1,4,1.7,1.1.6,2.1,1.2,2.8,1.9.8.8,1.3,1.6,1.7,2.6s.6,2.2.6,3.6c0,2.8-1,4.9-2.9,6.4-1.9,1.6-4.8,2.2-8.7,2.2s-2.5,0-3.6-.2-2-.3-2.8-.6c-.8-.2-1.5-.4-2.1-.8-.6-.2-1.1-.4-1.5-.8l1.9-5.3c.9.4,2,.9,3.2,1.3,1.4.6,2.9.7,4.8.7Z"/>
      <path class="cls-9" d="M1541.7,65.8v-29.6h19.9v5.6h-13.3v5.8h11.8v5.5h-11.8v7.1h14.3v5.6h-20.9Z"/>
      <path class="cls-9" d="M1581.1,66.4c-4.8,0-8.4-1.3-11-4-2.5-2.7-3.8-6.5-3.8-11.4s.3-4.6,1.1-6.5,1.8-3.6,3.1-4.8c1.3-1.3,2.9-2.4,4.8-3,1.9-.7,3.8-1,6.1-1s2.4,0,3.4.2,1.9.4,2.7.7c.8.2,1.5.4,1.9.8.6.2.9.4,1.1.6l-1.9,5.4c-.9-.4-2-.9-3.1-1.2s-2.6-.6-4.1-.6-2,.2-3,.6c-1,.3-1.9.9-2.6,1.7s-1.3,1.7-1.8,2.9c-.4,1.2-.7,2.7-.7,4.4s0,2.6.4,3.8c.3,1.1.8,2.2,1.5,3,.7.9,1.6,1.6,2.6,2,1.1.4,2.4.8,3.9.8s1.8,0,2.6-.2c.8,0,1.5-.2,2-.4.6,0,1.1-.3,1.6-.6.4-.2.9-.3,1.2-.6l1.8,5.4c-.9.6-2.2,1.1-3.9,1.6-1.7.2-3.7.4-5.9.4Z"/>
      <path class="cls-9" d="M1606.7,66.4c-2,0-3.9-.3-5.4-.9s-2.8-1.3-3.7-2.5-1.7-2.2-2.1-3.7c-.4-1.5-.7-3-.7-4.7v-18.4h6.6v17.8c0,1.2,0,2.2.4,3,.3.8.7,1.6,1.1,2,.4.4,1,.9,1.7,1.1.7.2,1.3.3,2.2.3,1.7,0,2.9-.4,3.9-1.5,1-1,1.5-2.7,1.5-5v-17.7h6.6v18.4c0,1.7-.2,3.4-.8,4.8-.4,1.5-1.2,2.7-2.2,3.7s-2.2,1.8-3.8,2.5c-1.4.4-3.2.8-5.3.8Z"/>
      <path class="cls-9" d="M1634,35.9c4.5,0,7.8.8,10.2,2.4,2.4,1.6,3.6,4,3.6,7.4s-.4,3.7-1.5,5c-.9,1.3-2.4,2.4-4.1,3,.6.8,1.2,1.6,1.9,2.6.7.9,1.3,1.9,1.9,3,.7,1,1.2,2.1,1.9,3.2.6,1.1,1.1,2.2,1.7,3.4h-7.4c-.6-1-1.1-1.9-1.7-2.9-.6-1-1.1-2-1.7-2.9-.6-.9-1.1-1.8-1.7-2.7-.6-.9-1.1-1.6-1.7-2.2h-3.2v10.8h-6.6v-29.2c1.5-.2,2.9-.4,4.5-.6,1.3-.2,2.7-.3,3.9-.3ZM1634.4,41.6h-1.3c-.3,0-.8,0-1.1,0v8.1h1.9c2.5,0,4.3-.3,5.4-.9,1.1-.7,1.7-1.7,1.7-3.1s-.6-2.5-1.7-3.1c-1.2-.9-2.8-1.1-4.9-1.1Z"/>
      <path class="cls-9" d="M1653.8,65.8v-29.6h19.9v5.6h-13.3v5.8h11.8v5.5h-11.8v7.1h14.3v5.6h-20.9Z"/>
    </g>
    <g class="cls-20">
      <path class="cls-9" d="M1520.9,85.2c1.5,0,2.2-.6,2.2-1.6s0-.6-.2-.8c0-.2-.3-.4-.6-.6-.2-.2-.4-.3-.8-.4s-.6-.2-.9-.3c-.3,0-.8-.2-1.1-.4-.3-.2-.7-.3-.9-.6-.2-.2-.4-.4-.6-.8,0-.3-.2-.7-.2-1.1,0-.9.3-1.6.9-2.1.6-.6,1.5-.8,2.6-.8s1.2,0,1.7.2c.4,0,.9.2,1.1.4l-.4,1.2c-.2,0-.6-.2-.9-.3-.3,0-.9-.2-1.5-.2s-.6,0-.8,0-.4,0-.7.2c-.2,0-.3.2-.4.4,0,.2,0,.4,0,.7s0,.6.2.7.2.3.4.4.4.2.7.3.6.2.9.3c.4.2.9.3,1.2.6.3.2.7.3,1,.7s.4.6.7.9c.2.3.2.8.2,1.2,0,.9-.3,1.6-1,2.1-.7.4-1.6.8-2.8.8s-.8,0-1.1,0-.7,0-.9-.2-.6,0-.7-.2c-.2,0-.3,0-.4-.2l.4-1.2c.2,0,.6.2,1,.4.6.2,1.1.3,1.8.3Z"/>
      <path class="cls-9" d="M1528.8,85.2c1.5,0,2.2-.6,2.2-1.6s0-.6-.2-.8c0-.2-.3-.4-.6-.6-.2-.2-.4-.3-.8-.4s-.6-.2-.9-.3c-.3,0-.8-.2-1.1-.4s-.7-.3-.9-.6c-.2-.2-.4-.4-.6-.8,0-.3-.2-.7-.2-1.1,0-.9.3-1.6.9-2.1.6-.6,1.5-.8,2.6-.8s1.2,0,1.7.2c.4,0,.9.2,1.1.4l-.4,1.3c-.2,0-.6-.2-.9-.3-.3,0-.9-.2-1.5-.2s-.6,0-.8,0-.4,0-.7.2c-.2,0-.3.2-.4.4,0,.2,0,.4,0,.7s0,.6.2.7.2.3.4.4.4.2.7.3c.2,0,.6.2.9.3.4.2.9.3,1.2.6.3.2.7.3,1,.7s.4.6.7.9c.2.3.2.8.2,1.2,0,.9-.3,1.6-1,2.1-.7.4-1.6.8-2.8.8s-.8,0-1.1,0-.7,0-.9-.2-.6,0-.7-.2c-.2,0-.3,0-.4-.2l.4-1.2c.2,0,.6.2,1,.4.6,0,1.2.2,1.8.2Z"/>
      <path class="cls-9" d="M1540.5,85v1.2h-6.2v-10.3h1.5v9.1h4.7Z"/>
      <path class="cls-9" d="M1545.5,86.2v-10.3h6.3v1.2h-4.8v3h4.3v1.2h-4.3v3.6h5.3v1.2h-6.8Z"/>
      <path class="cls-9" d="M1553.9,78.7c.3,0,.8-.2,1.2-.2.6,0,1.1,0,1.8,0s1.1,0,1.6.2c.4.2.8.4,1,.8.2.3.4.7.6,1.1,0,.4,0,.9,0,1.5v4.4h-1.3v-4c0-.4,0-.9,0-1.2s-.2-.6-.3-.8c0-.2-.3-.3-.6-.4-.2,0-.6,0-.9,0h-.8c0,0-.2,0-.3,0h-.2v6.5h-1.3l-.5-7.8h0Z"/>
      <path class="cls-9" d="M1565.8,86.4c-.7,0-1.1,0-1.7-.3-.6-.2-.9-.4-1.2-.8s-.6-.8-.7-1.2c0-.4-.2-1-.2-1.6s0-1.1.2-1.7c.2-.4.4-.9.8-1.3s.7-.7,1.1-.9,1-.3,1.6-.3.7,0,1,0,.7,0,1,.2l-.3,1.2c-.2,0-.4-.2-.7-.2-.2,0-.6,0-.9,0-.8,0-1.3.2-1.8.8s-.6,1.2-.6,2.1,0,.8,0,1.1c0,.3.2.7.4.9.2.2.4.4.8.6.3,0,.7.2,1.1.2s.7,0,1,0,.6,0,.7-.2l.2,1.1c0,0-.2,0-.3,0s-.3,0-.6,0-.3,0-.6,0c0,.1-.3.1-.4.1Z"/>
      <path class="cls-9" d="M1572.2,78.4h.4c0,0,.3,0,.4,0,0,0,.2,0,.4,0,0,0,.2,0,.2,0l-.2,1.2c0,0-.3,0-.6,0-.2,0-.6,0-1,0s-.6,0-.8,0-.4,0-.4,0v6.5h-1.3v-7.4c.3,0,.8-.2,1.2-.3.6,0,1-.3,1.7-.3Z"/>
      <path class="cls-9" d="M1574.4,87.7c0,0,.2,0,.4,0s.3,0,.6,0c.6,0,1,0,1.2-.3.2-.2.6-.7.8-1.2-.7-1.2-1.2-2.5-1.8-3.8s-1-2.7-1.3-4h1.5c0,.4.2.9.3,1.5s.3,1,.6,1.6c.2.6.3,1.1.6,1.7.2.6.4,1.1.7,1.6.3-1,.7-2,1-3.1s.6-2,.8-3.1h1.5c-.3,1.5-.8,2.9-1.2,4.3-.4,1.3-.9,2.6-1.5,3.8-.2.4-.4.8-.6,1.1,0,.3-.4.6-.7.8-.2.2-.6.3-.9.4-.3,0-.7,0-1.1,0h-.3c0,0-.2,0-.3,0,0,0-.2,0-.3,0s0,0-.2,0l.2-1.3Z"/>
      <path class="cls-9" d="M1589.6,82.4c0,.6,0,1.1-.2,1.6,0,.4-.3.9-.7,1.2s-.7.7-1.1.8c-.4.2-.9.3-1.5.3s-.9,0-1.2-.2-.6-.2-.8-.3v3.2h-1.3v-10.2c.3,0,.8-.2,1.2-.2s1,0,1.7,0,1.1,0,1.6.2c.4,0,.9.4,1.2.8s.6.8.8,1.2c.2.5.3,1,.3,1.7ZM1588.1,82.4c0-.9-.2-1.6-.7-2.1-.4-.4-1-.8-1.8-.8h-1c-.2,0-.4,0-.6,0v4.9c.2,0,.4.2.8.4.3.2.7.2,1,.2s.8,0,1-.2.6-.3.7-.6c0-.2.3-.6.3-.9.3-.2.3-.7.3-1Z"/>
      <path class="cls-9" d="M1592.8,78.5h2.9v1.1h-2.9v3.6c0,.3,0,.7,0,1s0,.4.2.6c0,0,.2.2.4.3.2,0,.3,0,.7,0s.8,0,1,0,.4,0,.6-.2l.2,1.1c0,0-.3,0-.8.2-.4,0-.8,0-1.2,0-.6,0-1,0-1.3-.2s-.6-.3-.8-.6c-.2-.2-.3-.6-.4-1,0-.4,0-.9,0-1.3v-6.9l1.3-.2v2.4h0Z"/>
      <path class="cls-9" d="M1597,82.4c0-.7,0-1.2.3-1.8s.4-.9.8-1.2c.3-.3.7-.6,1.1-.8.4-.2.9-.2,1.3-.2,1,0,1.8.3,2.4,1,.6.7.8,1.7.8,3v.4h-5.3c0,.8.3,1.5.7,1.8.4.4,1,.7,1.9.7s.9,0,1.2,0,.6-.2.8-.2l.2,1.1c-.2,0-.4.2-.9.2s-.9,0-1.5,0-1.2,0-1.8-.3c-.6-.2-.9-.4-1.2-.9-.3-.4-.6-.8-.7-1.2,0-.5,0-1,0-1.6ZM1602.2,81.6c0-.7,0-1.1-.4-1.6s-.8-.6-1.3-.6-.6,0-.9.2-.4.2-.6.4c0,.2-.3.4-.3.7,0,.2,0,.6-.2.8,0,0,3.7,0,3.7,0Z"/>
      <path class="cls-9" d="M1610.6,74.9l1.3-.2v11.3c-.3,0-.8.2-1.2.2-.4,0-1.1,0-1.7,0s-1.1,0-1.6-.2c-.4,0-.9-.4-1.2-.8-.3-.3-.6-.8-.8-1.2-.2-.4-.2-1-.2-1.7s0-1.1.2-1.7c0-.6.3-.9.7-1.2s.7-.7,1.1-.8c.4-.2.9-.3,1.5-.3s.9,0,1.2.2.6.2.8.3v-4h0ZM1610.6,80.2c-.2,0-.4-.2-.8-.4-.3,0-.7-.2-1-.2s-.8,0-1,.2-.6.3-.7.6c0,.2-.3.6-.3.9,0,.3,0,.7,0,1.1,0,.9.2,1.6.7,2.1.4.4,1,.8,1.8.8s.7,0,.9,0c.2,0,.4,0,.6,0v-4.9h-.1Z"/>
      <path class="cls-9" d="M1620.7,75.8c1.5,0,2.6.2,3.4.8.8.6,1.1,1.3,1.1,2.5s0,1.1-.3,1.6c-.2.4-.6.8-.9,1-.3.2-.9.4-1.5.6-.6,0-1.2.2-1.9.2h-1.1v3.8h-1.5v-10.3c.4,0,.9-.2,1.3-.2.5,0,1,0,1.4,0ZM1620.8,77h-1.5v4.1h1.1c.4,0,.9,0,1.3,0,.4,0,.8-.2,1-.3.2,0,.4-.3.7-.7,0-.2.2-.6.2-1s0-.8-.2-1c0-.2-.3-.4-.7-.7-.2,0-.6-.2-.9-.3-.3,0-.6,0-1,0Z"/>
      <path class="cls-9" d="M1629.1,78.3c.6,0,1,0,1.3.2s.7.3.9.6c.2.2.4.6.4.9,0,.3,0,.8,0,1.2v4.8c0,0-.2,0-.4,0s-.4,0-.7,0-.6,0-.9,0h-.9c-.4,0-.9,0-1.2,0s-.7-.2-.9-.4c-.2-.2-.4-.4-.7-.8-.2-.3-.2-.7-.2-1.1s0-.8.2-1.1c.2-.3.4-.6.7-.8.3-.2.7-.3,1-.4s.8,0,1.2,0h.4c0,0,.3,0,.4,0,0,0,.2,0,.3,0s.2,0,.2,0v-.3c0-.2,0-.4,0-.7,0-.2,0-.4-.2-.6,0,0-.3-.3-.6-.4-.2,0-.6,0-.9,0s-.9,0-1.2,0-.6,0-.8.2l-.2-1.1c.2,0,.4,0,.9-.2,1-.2,1.4-.3,1.9-.3ZM1629.2,85.2h.9c.2,0,.4,0,.7,0v-2.4c0,0-.2,0-.4,0s-.4,0-.8,0h-.7c-.2,0-.4,0-.7.2s-.3.2-.4.3c0,.2-.2.3-.2.7s0,.9.4,1c.3.2.7.5,1.2.5Z"/>
      <path class="cls-9" d="M1633.3,87.7c0,0,.2,0,.4,0s.3,0,.6,0c.6,0,1,0,1.2-.3.2-.2.6-.7.8-1.2-.7-1.2-1.2-2.5-1.8-3.8s-1-2.7-1.3-4h1.5c0,.4.2.9.3,1.5s.3,1,.6,1.6c.2.6.3,1.1.6,1.7.2.6.4,1.1.7,1.6.3-1,.7-2,1-3.1s.6-2,.8-3.1h1.5c-.3,1.5-.8,2.9-1.2,4.3-.4,1.3-.9,2.6-1.5,3.8-.2.4-.4.8-.6,1.1,0,.3-.4.6-.7.8-.2.2-.6.3-.9.4-.3,0-.7,0-1.1,0h-.3c0,0-.2,0-.3,0,0,0-.2,0-.3,0s0,0-.2,0l.2-1.3Z"/>
      <path class="cls-9" d="M1641.6,78.7c.3,0,.8-.2,1.2-.2s1.1,0,1.8,0,.9,0,1.2.2.6.3.9.6c0,0,.2,0,.3-.2s.3-.2.6-.2c.2,0,.4,0,.8-.2.2,0,.6,0,.9,0,.6,0,1.1,0,1.5.2.3.2.7.4.9.8.2.3.3.7.4,1.1,0,.4,0,.9,0,1.5v4.4h-1.3v-4c0-.4,0-.9,0-1.2s0-.6-.2-.8c0-.2-.3-.3-.6-.4-.2,0-.4,0-.8,0s-.9,0-1.1.2c-.2,0-.6.2-.6.3,0,.2,0,.6.2.9v5.2h-1.3v-4c0-.4,0-.9,0-1.2,0-.3,0-.6-.2-.8,0-.2-.3-.3-.6-.4-.2,0-.4,0-.8,0h-.8c-.1,0-.2,0-.3,0h-.2v6.4h-1.3l-.5-7.9h0Z"/>
      <path class="cls-9" d="M1653.9,82.4c0-.7,0-1.2.3-1.8.2-.6.4-.9.8-1.2.3-.3.7-.6,1.1-.8s.9-.2,1.3-.2c1,0,1.8.3,2.4,1s.8,1.7.8,3v.4h-5.3c0,.8.3,1.5.7,1.8.4.4,1,.7,1.9.7s.9,0,1.2,0c.3,0,.6-.2.8-.2l.2,1.1c-.2,0-.4.2-.9.2s-.9,0-1.5,0-1.2,0-1.8-.3c-.6-.2-.9-.4-1.2-.9-.3-.4-.6-.8-.7-1.2,0-.5,0-1,0-1.6ZM1659.3,81.6c0-.7,0-1.1-.4-1.6s-.8-.6-1.3-.6-.6,0-.9.2-.4.2-.6.4c0,.2-.3.4-.3.7,0,.2,0,.6-.2.8-.3,0,3.7,0,3.7,0Z"/>
      <path class="cls-9" d="M1662.6,78.7c.3,0,.8-.2,1.2-.2.6,0,1.1,0,1.8,0s1.1,0,1.6.2c.4.2.8.4,1,.8.2.3.4.7.6,1.1,0,.4,0,.9,0,1.5v4.4h-1.3v-4c0-.4,0-.9,0-1.2,0-.3-.2-.6-.3-.8,0-.2-.3-.3-.6-.4s-.6,0-.9,0h-.8c0,0-.2,0-.3,0h-.2v6.5h-1.3l-.5-7.8h0Z"/>
      <path class="cls-9" d="M1672.5,78.5h2.9v1.1h-2.9v3.6c0,.3,0,.7,0,1s0,.4.2.6.2.2.4.3c.2,0,.3,0,.7,0s.8,0,1,0,.4,0,.6-.2l.2,1.1c0,0-.3,0-.8.2-.4,0-.8,0-1.2,0-.6,0-1,0-1.3-.2s-.6-.3-.8-.6c-.2-.2-.3-.6-.4-1s0-.9,0-1.3v-6.9l1.3-.2v2.4h.1Z"/>
    </g>
  </g>
  <g>
    <g>
      <path class="cls-4" d="M1199.8,75.1c0-.8-.6-1.1-1.1-1.1-1.1,0-2.7.2-3.8.2-6.5,0-11.8-5.3-11.8-11.8v-28.4c0-.2-.2-.4-.4-.4h-16.2l-.2.2v28.3c0,15.8,12.7,28.5,28.5,28.5s3-.2,4.6-.4c.2,0,.4-.2.4-.4v-14.7Z"/>
      <path class="cls-4" d="M1194.8,33.7c-1.5,0-3.2.2-4.8.4-.2,0-.4.2-.4.4v14.8c0,.8.6,1.3,1.1,1.1.6,0,3.8-.2,3.8-.2,6.5,0,11.8,5.3,11.8,11.8h0v25.7c0,.2.2.2.2.2,9.9-4.4,16.7-14.3,16.7-25.7.2-15.8-12.6-28.5-28.4-28.5Z"/>
    </g>
    <path class="cls-4" d="M1286.5,45.5v-7.6l-9.1.8v7h9.1v-.2ZM1303.3,43l-8.7.8v29.1c0,5.7,2.7,9.1,9.3,9.1s4.9-.6,7-1.3v-7c-1.9.8-3.4,1-5.1,1s-2.3-.8-2.3-2.3v-14.6h7.4v-7.2h-7.6v-7.6h0ZM1277.4,81.4h9.1v-30.8h-9.1v30.8ZM1260.1,74.8c-1.1.4-3.2.4-4.9.4-2.9,0-5.3,0-6.8-.2v-9h6.7c4.8,0,6.8,1.3,6.8,4.6-.3,1.7-.9,3-1.8,4.2ZM1248.1,50.4c1.5,0,3.4-.2,5.5-.2,4.9,0,7,1.5,7,4.6s-.8,3-2.3,4.2c-1.3.2-2.9.4-4.6.4s-4.2,0-5.7-.2v-8.8h0ZM1264.8,61.6c2.9-1.7,5.3-4.4,5.3-8.4,0-6.7-5.1-10.3-16-10.3h-15.3v38.4h17.9c9.5,0,14.5-3.6,14.5-10.8-.1-4.7-2.8-7.3-6.4-8.9ZM1329.9,63.2c-4.6-.8-5.7-1.3-5.7-2.7s.2-1.3.6-1.7c1.1-.4,3-.6,4.8-.6,3.6,0,6.8.6,9.5,1.3v-7.4c-2.1-1.1-5.5-2.1-10.3-2.1-8,0-13.1,3.8-13.1,10.3s3.6,8.2,10.5,9.3c4.9,1,6.1,1.5,6.1,3s-.2,1.1-.4,1.5c-1.1.4-3,.8-5.5.8s-7.4-.8-9.7-1.5v7c2.5,1,6.5,1.5,10.1,1.5,8.6,0,14.1-2.7,14.1-9.5-.2-5.8-3.8-7.9-11-9.2ZM1362.8,74c-1.1.8-2.5,1.1-4.2,1.1-3.6,0-5.7-3-5.7-8.4s.6-5.7,1.7-7c1.1-1,2.5-1.3,4.2-1.3,3.8,0,5.5,3,5.5,7.6.2,3.2-.4,6.1-1.5,8ZM1359.4,50c-10.5,0-15.2,7-15.2,16.7s5.5,15.2,14.3,15.2,15-7,15-16.5-5.4-15.4-14.1-15.4Z"/>
  </g>
  <g>
    <path class="cls-11" d="M911.2,29.3c-24.5,0-44.4,12.7-44.4,28.4s19.9,29.6,44.4,29.6,44.4-13.9,44.4-29.6-19.9-28.4-44.4-28.4Z"/>
    <path class="cls-18" d="M896.8,48.9s-.5.5-.2.9c.7.9,2.8,1.4,5,.9,1.3-.3,2.9-1.6,4.5-2.8,1.7-1.4,3.4-2.7,5.1-3.3,1.8-.6,3-.3,3.7,0,.8.3,1.8.8,3.4,2,3,2.2,14.9,12.7,17,14.5,1.7-.8,9.6-4,19.7-6.2-.9-5.4-4.1-10.5-9-14.5-6.9,2.9-15.9,4.6-24.1.6,0,0-4.5-2.1-8.9-2-6.5.2-9.4,3-12.4,6l-3.8,4.1Z"/>
    <path class="cls-18" d="M934.9,62c-.1-.1-14.1-12.3-17.2-14.7-1.8-1.4-2.8-1.7-3.9-1.9-.6,0-1.3,0-1.9.2-1.5.4-3.4,1.7-5.1,3-1.8,1.4-3.4,2.7-5,3.1-2,.4-4.4,0-5.5-.8-.4-.3-.8-.6-.9-1-.4-.9.3-1.7.5-1.8l3.8-4.2c.4-.4.9-.9,1.4-1.3-1.2.2-2.4.5-3.5.8-1.4.4-2.7.8-4.1.8-.6,0-3.6-.5-4.2-.7-3.5-1-7.4-1.9-12-4-5.5,4.1-9,9.1-10.1,14.7.8.2,2.8.7,3.4.8,12.4,2.7,16.2,5.6,16.9,6.2.8-.8,1.8-1.4,3.1-1.4,1.4,0,2.6.7,3.4,1.8.7-.6,1.7-1,2.9-1,.6,0,1.2.1,1.8.3,1.4.5,2.1,1.4,2.5,2.2.5-.2,1-.4,1.7-.4.7,0,1.4.2,2.1.5,2.3,1,2.6,3.2,2.4,4.9.2,0,.3,0,.5,0,2.7,0,4.9,2.2,4.9,4.9s-.2,1.6-.6,2.3c.7.4,2.6,1.3,4.3,1.1,1.3-.2,1.8-.6,2-.9.1-.2.3-.4.1-.5l-3.5-3.9s-.6-.5-.4-.8c.2-.2.6,0,.8.3,1.8,1.5,3.9,3.7,3.9,3.7,0,0,.2.3,1,.5.7.1,1.9,0,2.8-.6.2-.2.4-.4.6-.6,0,0,0,0,0,0,.9-1.1,0-2.3,0-2.3l-4.1-4.6s-.6-.5-.4-.8c.2-.2.6,0,.8.3,1.3,1.1,3.1,2.9,4.9,4.6.3.3,1.9,1.2,3.9-.1,1.2-.8,1.5-1.8,1.4-2.6,0-1-.9-1.7-.9-1.7l-5.6-5.6s-.6-.5-.4-.8c.2-.2.5,0,.8.3,1.8,1.5,6.6,5.9,6.6,5.9,0,0,1.7,1.2,3.8,0,.7-.5,1.2-1.2,1.2-2,0-1.4-.9-2.3-.9-2.3Z"/>
    <path class="cls-18" d="M907.9,69.1c-.9,0-1.8.5-1.9.4,0,0,0-.4.1-.6,0-.2,1.2-3.6-1.6-4.8-2.1-.9-3.4.1-3.9.6-.1.1-.2.1-.2,0,0-.6-.3-2.3-2.1-2.8-2.6-.8-4.3,1-4.7,1.7-.2-1.5-1.5-2.6-3-2.6-1.7,0-3,1.4-3,3,0,1.7,1.4,3,3,3,.8,0,1.6-.3,2.1-.8,0,0,0,0,0,.1-.1.8-.4,3.5,2.5,4.6,1.1.4,2.1.1,2.9-.5.2-.2.3,0,.2.1-.1.7,0,2.2,2.1,3.1,1.6.7,2.5,0,3.2-.6.3-.2.3-.2.4.2,0,2,1.8,3.6,3.8,3.6,2.1,0,3.8-1.7,3.8-3.8,0-2.1-1.7-3.8-3.8-3.8Z"/>
    <path class="cls-8" d="M911.2,28.1c-25,0-45.2,13.3-45.2,29.6s0,1.6,0,1.7c0,17.3,17.7,31.3,45.2,31.3s45.2-14,45.2-31.3v-1.7c0-16.3-20.3-29.6-45.2-29.6ZM954.4,54.4c-9.8,2.2-17.2,5.4-19,6.2-4.3-3.7-14.2-12.4-16.9-14.4-1.5-1.2-2.6-1.8-3.5-2-.4-.1-1-.3-1.7-.3-.7,0-1.4.1-2.2.4-1.7.5-3.5,1.9-5.1,3.3h0c-1.6,1.3-3.2,2.6-4.4,2.9-.5.1-1.1.2-1.6.2-1.4,0-2.6-.4-3.1-1,0,0,0-.3.2-.5h0s3.8-4.1,3.8-4.1c3-3,5.7-5.7,12.2-5.9.1,0,.2,0,.3,0,4,0,8,1.8,8.5,2,3.8,1.8,7.6,2.8,11.5,2.8,4,0,8.2-1,12.6-3,4.6,3.9,7.6,8.5,8.6,13.6ZM911.2,29.8c13.3,0,25.1,3.8,33.1,9.8-3.9,1.7-7.5,2.5-11.1,2.5-3.6,0-7.3-.9-10.8-2.6-.2,0-4.6-2.2-9.2-2.2-.1,0-.2,0-.4,0-5.4.1-8.4,2-10.5,3.7-2,0-3.7.5-5.2,1-1.4.4-2.5.7-3.7.7-.5,0-1.3,0-1.4,0-1.3,0-7.9-1.7-13.2-3.7,8-5.7,19.5-9.2,32.3-9.2ZM877.3,40.2c5.5,2.3,12.2,4,14.3,4.1.6,0,1.2.1,1.8.1,1.4,0,2.8-.4,4.2-.8.8-.2,1.7-.5,2.6-.6-.2.2-.5.5-.7.7l-3.8,4.1c-.3.3-1,1.1-.5,2.1.2.4.5.8,1,1.1.9.6,2.6,1,4.1,1,.6,0,1.1,0,1.6-.2,1.6-.4,3.3-1.7,5.1-3.1,1.4-1.1,3.4-2.6,5-3,.4-.1,1-.2,1.4-.2.1,0,.2,0,.4,0,1,.1,2,.5,3.8,1.8,3.1,2.4,17.1,14.6,17.2,14.7,0,0,.9.8.8,2,0,.7-.4,1.3-1.1,1.8-.6.4-1.2.6-1.8.6-.9,0-1.6-.4-1.6-.5,0,0-4.8-4.4-6.6-5.9-.3-.2-.6-.4-.8-.4-.1,0-.3,0-.4.2-.3.3,0,.8.4,1.1l5.6,5.6s.7.6.8,1.5c0,.9-.4,1.7-1.3,2.3-.7.4-1.3.7-2,.7s-1.5-.4-1.6-.5l-.8-.8c-1.5-1.4-3-2.9-4.1-3.8-.3-.2-.6-.4-.8-.4s-.3,0-.4.2c-.1.1-.2.4.1.8.1.2.3.3.3.3l4.1,4.6s.8,1,0,1.9v.2c-.3.1-.4.3-.5.4-.7.6-1.6.6-2,.6s-.4,0-.5,0c-.4,0-.7-.2-.8-.3h0c-.2-.3-2.3-2.4-4-3.8-.2-.2-.5-.4-.8-.4s-.3,0-.4.2c-.3.4.2.9.4,1.1l3.5,3.8s0,.1-.1.2c-.1.2-.5.6-1.8.8-.2,0-.3,0-.5,0-1.3,0-2.7-.6-3.4-1,.3-.7.5-1.4.5-2.2,0-2.9-2.3-5.2-5.2-5.2,0,0-.1,0-.2,0,0-1.3,0-3.8-2.6-4.9-.7-.3-1.5-.5-2.2-.5s-1.1,0-1.6.3c-.5-1-1.4-1.8-2.5-2.2-.6-.2-1.3-.3-1.9-.3-1.1,0-2,.3-2.9.9-.8-1-2.1-1.6-3.4-1.6s-2.3.5-3.1,1.3c-1.1-.8-5.4-3.5-16.8-6.2-.5-.1-1.8-.5-2.6-.7,1.1-5.1,4.3-9.8,9.2-13.7ZM898.6,70.1h-.1c0-.1-.1-.1-.1-.1-.1,0-.2,0-.4.1-.6.4-1.1.6-1.7.6s-.6,0-1-.2c-2.7-1-2.4-3.5-2.3-4.3,0-.2,0-.3-.1-.4l-.2-.2-.2.2c-.5.5-1.2.8-1.9.8-1.5,0-2.8-1.2-2.8-2.8,0-1.5,1.2-2.8,2.8-2.8,1.4,0,2.5,1,2.7,2.4v.7c0,0,.5-.6.5-.6,0,0,1.2-1.8,3.2-1.8.4,0,.8,0,1.2.2,1.6.5,1.9,2,2,2.6,0,.4.3.4.3.4.1,0,.2,0,.3-.2.3-.3,1-.9,2-.9.5,0,1,.1,1.5.3,2.6,1.1,1.4,4.4,1.4,4.5-.2.5-.2.8,0,.9h.1s0,0,0,0c.1,0,.3,0,.5-.1.4-.1.9-.3,1.4-.3h0c2,0,3.5,1.6,3.5,3.5,0,2-1.6,3.5-3.5,3.5-1.9,0-3.5-1.5-3.5-3.4,0-.2,0-.6-.4-.6s-.3,0-.4.2c-.4.4-1,.8-1.7.8s-.7,0-1.1-.2c-2-.8-2-2.2-2-2.8,0-.1,0-.3,0-.4ZM911.2,85.5c-24,0-43.5-12.5-43.5-27.8s0-1.2.1-1.8c.2,0,2.1.5,2.5.6,11.7,2.6,15.6,5.3,16.2,5.8-.2.5-.3,1.1-.3,1.7,0,2.4,2,4.4,4.4,4.4.3,0,.5,0,.8,0,.4,1.8,1.5,3.1,3.3,3.8.5.2,1,.3,1.6.3.3,0,.7,0,1-.1.3.8,1.1,1.9,2.7,2.5.6.2,1.2.4,1.7.4s.9,0,1.3-.2c.8,1.9,2.7,3.2,4.8,3.2,1.4,0,2.7-.6,3.7-1.6.8.5,2.6,1.3,4.4,1.3.2,0,.4,0,.7,0,1.8-.2,2.6-.9,3-1.5,0,0,.1-.2.2-.3.4.1.9.2,1.4.2,1,0,1.9-.3,2.8-1,.9-.7,1.6-1.6,1.7-2.4,0,0,0,0,0,0,.3,0,.6,0,.9,0,1,0,2-.3,2.9-.9,1.8-1.2,2.1-2.7,2.1-3.7.3,0,.6,0,1,0,.9,0,1.9-.3,2.7-.8,1.1-.7,1.8-1.8,1.9-3.1,0-.9-.1-1.7-.6-2.5,3-1.3,9.9-3.8,18-5.6,0,.5,0,.9,0,1.4,0,15.4-19.5,27.8-43.5,27.8Z"/>
    <g>
      <path class="cls-8" d="M1111.5,37.2c-1.6-2.1-4.1-3.1-7.5-3.1s-5.8,1-7.5,3.1c-1.6,2.1-2.5,4.5-2.5,7.3s.8,5.3,2.5,7.3c1.6,2,4.1,3,7.5,3s5.8-1,7.5-3c1.6-2,2.5-4.5,2.5-7.3s-.8-5.2-2.5-7.3ZM1107.4,49c-.8,1.1-1.9,1.6-3.4,1.6s-2.6-.5-3.4-1.6c-.8-1.1-1.2-2.6-1.2-4.5s.4-3.4,1.2-4.5c.8-1.1,2-1.6,3.4-1.6s2.6.5,3.4,1.6c.8,1.1,1.2,2.6,1.2,4.5s-.4,3.5-1.2,4.5Z"/>
      <path class="cls-8" d="M1069.5,35.5c-1.7-.8-3.6-1.3-5.7-1.3-3.3,0-5.6.9-7,2.6-.9,1.1-1.3,2.5-1.4,4.2h4.9c.1-.8.4-1.4.7-1.8.5-.6,1.4-.9,2.6-.9s1.9.2,2.5.5c.6.3.8.9.8,1.7s-.4,1.1-1.1,1.5c-.4.2-1.1.3-2,.4l-1.7.2c-2,.3-3.5.7-4.5,1.3-1.9,1.1-2.8,2.8-2.8,5.2s.6,3.3,1.7,4.3c1.2,1,2.6,1.4,4.4,1.5,11.1.5,11-5.9,11.1-7.2v-7.3c0-2.4-.8-4-2.5-4.8ZM1066.9,46.6c0,1.7-.5,2.9-1.5,3.5-.9.6-2,1-3.1,1s-1.3-.2-1.8-.6c-.5-.4-.7-1-.7-1.9s.4-1.7,1.2-2.2c.5-.3,1.3-.5,2.3-.7l1.2-.2c.6-.1,1-.2,1.4-.4.3-.1.7-.3,1-.5v1.9Z"/>
      <path class="cls-8" d="M1044.1,38.6c1.3,0,2.2.4,2.8,1.2.4.6.7,1.2.8,2h5.5c-.3-2.8-1.3-4.7-2.9-5.8-1.6-1.1-3.7-1.6-6.3-1.6s-5.4.9-7.1,2.8c-1.7,1.9-2.6,4.5-2.6,7.8s.8,5.4,2.3,7.2c1.6,1.9,4,2.8,7.3,2.8s5.8-1.1,7.5-3.3c1.1-1.4,1.6-2.8,1.8-4.4h-5.5c-.1,1-.4,1.9-1,2.5-.5.6-1.4,1-2.7,1s-3-.8-3.6-2.4c-.4-.9-.5-2-.5-3.4s.2-2.7.5-3.6c.7-1.7,1.9-2.6,3.7-2.6Z"/>
      <path class="cls-8" d="M1032.8,34.3c-11.3,0-10.6,10-10.6,10v10.2h5.1v-9.5c0-1.6.2-2.7.6-3.5.7-1.3,2.1-2,4.1-2s.4,0,.6,0c.2,0,.5,0,.9,0v-5.2c-.2,0-.4,0-.4,0,0,0-.1,0-.2,0Z"/>
      <path class="cls-8" d="M1018.1,38c-.9-1.3-2-2.3-3.4-2.9-1.4-.6-2.9-.9-4.6-.9-2.9,0-5.2.9-7,2.7-1.8,1.8-2.7,4.4-2.7,7.8s1,6.2,3,7.8c2,1.6,4.3,2.4,6.9,2.4s5.6-.9,7.3-2.8c.9-1,1.5-2,1.8-3h-5.4c-.2.3-.4.6-.7.8-.7.6-1.7.8-2.9.8s-2-.2-2.7-.7c-1.3-.8-2-2.1-2.1-4.1h14.2c0-1.7,0-3-.2-3.9-.2-1.5-.8-2.9-1.5-4ZM1005.7,42.6c.2-1.3.6-2.3,1.4-3,.7-.7,1.7-1.1,3-1.1s2.2.3,3,1.1c.8.7,1.3,1.7,1.4,3.1h-8.8Z"/>
      <path class="cls-8" d="M990.3,34.2c-2.4,0-4.4,1-5.8,2.7-1.3-1.7-3.3-2.7-5.8-2.7-5,0-8.2,3.7-8.2,8.5v11.7h4.7v-11.8c0-2.2,1.5-3.6,3.5-3.6,3.1,0,3.4,2.6,3.4,3.6v11.8h4.7v-11.8c0-2.2,1.5-3.6,3.5-3.6,3.1,0,3.4,2.6,3.4,3.6v11.8h4.7v-11.7c0-5-3-8.5-8.1-8.5Z"/>
      <path class="cls-8" d="M1087.4,31.7v5.5c-.6-.9-1.3-1.6-2.2-2.2-.9-.5-2-.8-3.1-.8-2.6,0-4.6,1-6.1,2.9-1.5,1.9-2.3,4.7-2.3,8s.8,5.2,2.3,7.1c1.6,1.8,4.6,2.6,7.3,2.6,9.4,0,9.3-8.1,9.3-8.1v-18.6s-5.2-.6-5.2,3.6ZM1086.4,49c-.7,1.1-1.8,1.6-3.3,1.6s-2.5-.5-3.2-1.6c-.7-1.1-1.1-2.6-1.1-4.4s.3-3.1,1-4.2c.7-1.1,1.8-1.7,3.3-1.7s1.8.3,2.6.9c1.2,1,1.8,2.9,1.8,5.2s-.4,3.1-1.1,4.2Z"/>
    </g>
    <path class="cls-8" d="M981.3,62.2c-4.2-.2-6.4.8-7.7,1.9-1.9,1.5-3.1,3.6-3.1,7.1v17.8h2.5c.7,0,1.3-.2,1.8-.7.5-.5.8-1.1.8-1.8v-6.7c.6,1,1.4,1.8,2.4,2.3,1,.4,2.1.7,3.3.7,2.4,0,4.3-.9,5.8-2.8,1.5-1.9,2.3-4.5,2.3-7.6s-.7-5.3-2.4-7.4c-1.4-1.7-3.5-2.6-5.7-2.7ZM983,76.9c-.8,1-1.8,1.6-3.1,1.6s-2.5-.5-3.2-1.6c-.8-.9-1.1-2.3-1.1-4.2s.4-3.5,1.1-4.5c.8-1,1.8-1.6,3.2-1.6s2.5.5,3.2,1.6c.8,1,1.1,2.5,1.1,4.5s-.4,3.2-1.1,4.2Z"/>
    <path class="cls-8" d="M1025.3,64.1c-1.7-1.3-3.5-2-6.6-1.9-3.1,0-5.4,1-6.8,2.9-1.4,1.9-2.1,4.4-2.1,7.5s.5,4.7,1.6,6.4c1.1,1.6,2.3,2.7,3.8,3.3,1.5.6,3,.7,4.5.4,1.5-.3,2.7-1.2,3.6-2.6v1.3c-.1,1.6-.5,2.8-1.1,3.6-.7.8-1.4,1.3-2.2,1.4-.8.2-1.6,0-2.4-.3-.8-.4-1.4-.9-1.8-1.6h-5.4c1.4,4.2,3.9,6.1,8.4,6.4,7.3.5,9.6-5.7,9.6-9v-10.5c0-3.5-1.1-5.7-3-7.1ZM1023.1,74.4c-.2,1.2-.5,2-1,2.6-.9,1.3-2.4,1.7-4.4,1.4-2-.4-3-2.3-3-5.7s.3-3,.9-4.2c.6-1.2,1.7-1.9,3.4-1.9s2.2.4,2.8,1.3c.6.9,1.1,1.9,1.2,3,.2,1.1.2,2.3,0,3.5Z"/>
    <path class="cls-8" d="M1005.4,63.6c-1.7-.8-3.6-1.3-5.7-1.3-3.3,0-5.6.9-7,2.6-.9,1.1-1.3,2.5-1.4,4.2h4.9c.1-.8.4-1.4.7-1.8.5-.6,1.4-.9,2.6-.9s1.9.2,2.5.5c.6.3.8.9.8,1.7s-.4,1.1-1.1,1.5c-.4.2-1.1.3-2,.4l-1.7.2c-2,.3-3.5.7-4.5,1.3-1.9,1.1-2.8,2.8-2.8,5.2s.6,3.3,1.7,4.3c1.2,1,2.6,1.4,4.4,1.5,11.1.5,11-5.9,11.1-7.2v-7.3c0-2.3-.8-3.9-2.5-4.8ZM1002.8,74.7c0,1.7-.5,2.9-1.5,3.5-.9.6-2,1-3.1,1s-1.3-.2-1.8-.6-.7-1-.7-1.9.4-1.7,1.2-2.2c.5-.3,1.3-.5,2.3-.7l1.2-.2c.6-.1,1-.2,1.4-.4.3-.1.7-.3,1-.5v1.9Z"/>
    <path class="cls-8" d="M1047.7,65.2c-1.6-2.1-4.1-3.1-7.5-3.1s-5.8,1-7.5,3.1c-1.6,2.1-2.5,4.5-2.5,7.3s.8,5.3,2.5,7.3c1.6,2,4.1,3,7.5,3s5.8-1,7.5-3c1.6-2,2.5-4.5,2.5-7.3s-.8-5.2-2.5-7.3ZM1043.6,77c-.8,1.1-1.9,1.6-3.4,1.6s-2.6-.5-3.4-1.6c-.8-1.1-1.2-2.6-1.2-4.5s.4-3.4,1.2-4.5c.8-1.1,1.9-1.6,3.4-1.6s2.6.5,3.4,1.6c.8,1.1,1.2,2.6,1.2,4.5s-.4,3.5-1.2,4.5Z"/>
  </g>
  <g>
    <path class="cls-6" d="M567.6,44.8h18c9.7,0,13.3,4.9,12.8,12.1-.9,11.9-8.1,18.5-17.6,18.5h-4.8c-1.3,0-2.2.9-2.5,3.2l-2.1,13.6c-.1.9-.6,1.4-1.3,1.5h-11.3c-1.1,0-1.4-.8-1.2-2.6l6.9-43.7c.3-1.8,1.2-2.6,3.1-2.6Z"/>
    <path class="cls-14" d="M645.8,44c6.1,0,11.7,3.3,10.9,11.5-.9,9.7-6.2,15.2-14.4,15.2h-7.2c-1,0-1.5.8-1.8,2.6l-1.4,8.9c-.2,1.3-.9,2-1.9,2h-6.7c-1.1,0-1.4-.7-1.2-2.2l5.5-35.6c.3-1.7.9-2.4,2.1-2.4h16.1ZM634.9,63h5.5c3.4-.1,5.7-2.5,5.9-6.8.1-2.6-1.6-4.5-4.5-4.5h-5.1s-1.8,11.3-1.8,11.3h0ZM675,81.4c.6-.6,1.2-.8,1.1-.2l-.2,1.6c-.1.9.2,1.3,1,1.3h6c1,0,1.5-.4,1.7-2l3.7-23.1c.2-1.2,0-1.7-1-1.7h-6.6c-.6,0-.9.3-1,1.2l-.2,1.4c-.1.7-.5.9-.8.1-1.1-2.6-4-3.8-7.9-3.7-9.2.2-15.4,7.2-16.1,16.1-.5,6.9,4.5,12.4,11,12.4,4.7,0,6.9-1.4,9.3-3.6h0ZM670,77.9c-4,0-6.7-3.2-6.1-7,.6-3.9,4.3-7,8.2-7s6.7,3.2,6.1,7c-.6,3.9-4.3,7-8.2,7h0ZM700,57.4h-6c-1.2,0-1.8.9-1.4,2.1l7.5,22-7.4,10.5c-.6.9-.1,1.7.7,1.7h6.8c1,0,1.5-.3,2-1l23.1-33.1c.7-1,.4-2.1-.8-2.1h-6.4c-1.1,0-1.5.4-2.2,1.3l-9.6,14-4.3-14c-.3-.9-.9-1.3-2.1-1.3Z"/>
    <path class="cls-6" d="M749.4,44c6.1,0,11.7,3.3,10.9,11.5-.9,9.7-6.2,15.2-14.4,15.2h-7.2c-1,0-1.5.8-1.8,2.6l-1.4,8.9c-.2,1.3-.9,2-1.9,2h-6.7c-1.1,0-1.4-.7-1.2-2.2l5.5-35.6c.3-1.7.9-2.4,2.1-2.4h16.1ZM738.5,63h5.5c3.4-.1,5.7-2.5,5.9-6.8.1-2.6-1.6-4.5-4.5-4.5h-5.1s-1.8,11.3-1.8,11.3h0ZM778.6,81.4c.6-.6,1.2-.8,1.1-.2l-.2,1.6c-.1.9.2,1.3,1,1.3h6c1,0,1.5-.4,1.7-2l3.7-23.1c.2-1.2,0-1.7-1-1.7h-6.6c-.6,0-.9.3-1,1.2l-.2,1.4c-.1.7-.5.9-.8.1-1.1-2.6-4-3.8-7.9-3.7-9.2.2-15.4,7.2-16.1,16.1-.5,6.9,4.5,12.4,11,12.4,4.7,0,6.9-1.4,9.3-3.6h0ZM773.6,77.9c-4,0-6.7-3.2-6.1-7,.6-3.9,4.3-7,8.2-7s6.7,3.2,6.1,7c-.6,3.9-4.3,7-8.2,7h0ZM801.1,84.3h-6.9c-.5,0-.9-.4-.8-1l6.1-38.3c0-.5.6-1,1.1-1h6.9c.5,0,.9.4.8,1l-6.1,38.3c0,.5-.6,1-1.1,1Z"/>
    <path class="cls-14" d="M556.3,29.7h18c5.1,0,11.1.2,15.1,3.7,2.7,2.4,4.1,6.2,3.8,10.2-1.1,13.8-9.3,21.5-20.4,21.5h-8.9c-1.5,0-2.5,1-2.9,3.7l-2.5,15.8c-.2,1-.6,1.6-1.4,1.7h-11.1c-1.2,0-1.7-.9-1.3-3l8-50.7c.3-2,1.4-3,3.6-3Z"/>
    <path class="cls-15" d="M561.3,67.3l3.2-19.9c.3-1.8,1.2-2.6,3.1-2.6h18c3,0,5.4.5,7.3,1.3-1.8,12.3-9.7,19.1-20.1,19.1h-8.9c-1.2,0-2,.6-2.6,2.1Z"/>
  </g>
</svg>